#!OML:ASF E:\emotionWalksFemale\Project 1\Capture day 1\Session 1\Female1.ASF
:FULLY-SPECIFIED
:DEGREES
3567
root 10.7679 15.3982 39.3071 -197.97 -74.5931 -160.245
lowerback 10.8421 2.53848 1.83486
upperback -3.7566 3.61141 -0.641813
thorax -9.97355 1.59446 -2.41265
lowerneck -9.12325 -1.20631 -6.75907
upperneck 12.9508 -2.72235 13.0248
head 5.65695 -0.845692 5.04903
rclavicle -1.25731e-014 1.59028e-014
rhumerus -48.427 5.86032 -82.1029
rradius 48.9461
rwrist 8.65266
rhand 6.23489 -56.8799
rfingers 7.12502
rthumb -148.453 1895.82
lclavicle -1.25731e-014 1.59028e-014
lhumerus -47.1797 18.3021 60.8719
lradius 40.7918
lwrist -5.23408
lhand -0.699952 -34.0804
lfingers 7.12502
lthumb 24.9198 -5.68503
rfemur -5.21096 -1.42067 29.5793
rtibia 29.0205
rfoot -13.4658 -20.2105
rtoes -1.42507
lfemur -24.5436 10.4498 -16.1141
ltibia 58.5346
lfoot -17.3254 16.1184
ltoes -6.28873
3568
root 10.7638 15.4055 39.3178 -196.625 -73.6599 -161.584
lowerback 11.0703 2.5321 1.96331
upperback -3.72618 3.63158 -0.594411
thorax -10.069 1.59552 -2.44982
lowerneck -9.28275 -1.06583 -6.69453
upperneck 13.434 -2.57714 12.9409
head 5.81664 -0.766177 5.03167
rclavicle 1.6114e-014 2.38542e-015
rhumerus -48.2172 5.31887 -81.7641
rradius 48.2209
rwrist 9.39825
rhand 4.60588 -57.6126
rfingers 7.12502
rthumb -150.006 1894.8
lclavicle 1.6114e-014 2.38542e-015
lhumerus -47.2302 18.4239 60.5906
lradius 40.835
lwrist -5.20544
lhand -1.13886 -34.5877
lfingers 7.12502
lthumb 24.4991 -6.13471
rfemur -5.05408 -1.05752 29.6025
rtibia 28.8794
rfoot -13.2978 -20.2829
rtoes -3.56543
lfemur -24.5167 9.47025 -15.7567
ltibia 58.0271
lfoot -18.4424 15.2174
ltoes -3.75971
3569
root 10.7636 15.4071 39.3262 -194.503 -72.7633 -163.464
lowerback 11.0182 2.54282 1.76476
upperback -3.7366 3.61503 -0.590661
thorax -10.0629 1.60037 -2.32886
lowerneck -9.25038 -0.877571 -6.56787
upperneck 13.6926 -2.35734 12.8449
head 5.86513 -0.658675 5.00051
rclavicle 4.94477e-015 1.59028e-014
rhumerus -47.9001 4.61335 -81.4047
rradius 47.4891
rwrist 10.4787
rhand 4.32793 -57.2059
rfingers 7.12502
rthumb -150.271 1895.16
lclavicle 4.94477e-015 1.59028e-014
lhumerus -47.2071 18.5356 60.3408
lradius 40.8131
lwrist -5.53442
lhand -1.84276 -34.8358
lfingers 7.12502
lthumb 23.8242 -6.29312
rfemur -5.29344 -0.0235895 29.3861
rtibia 28.9241
rfoot -13.9466 -20.4306
rtoes -2.15924
lfemur -24.78 8.52534 -15.6508
ltibia 57.3917
lfoot -19.2139 14.5536
ltoes -4.35471
3570
root 10.7613 15.3783 39.3453 -192.444 -71.8088 -165.411
lowerback 10.9367 2.61233 1.62519
upperback -3.61177 3.68033 -0.638876
thorax -9.87909 1.64437 -2.30501
lowerneck -9.57088 -0.816962 -6.24501
upperneck 14.1824 -2.29852 12.4279
head 6.06099 -0.624084 4.82421
rclavicle -2.1183e-015 7.15625e-015
rhumerus -47.5012 4.22135 -81.0437
rradius 46.8575
rwrist 11.1542
rhand 5.24708 -56.4545
rfingers 7.12502
rthumb -149.394 1896.07
lclavicle -2.1183e-015 7.15625e-015
lhumerus -46.9512 18.3012 60.4472
lradius 40.7491
lwrist -5.49126
lhand -3.16975 -34.894
lfingers 7.12502
lthumb 22.551 -6.19103
rfemur -5.59361 0.9837 28.9931
rtibia 29.0667
rfoot -14.0734 -20.7747
rtoes -4.17718
lfemur -24.9739 7.48657 -15.6249
ltibia 56.686
lfoot -19.7108 14.1967
ltoes -7.04549
3571
root 10.7571 15.3535 39.3603 -191.863 -70.8496 -166.296
lowerback 11.3515 2.8138 1.85149
upperback -3.50117 3.97362 -0.828356
thorax -9.95874 1.76307 -2.71127
lowerneck -9.52468 -0.943249 -5.52274
upperneck 14.6623 -2.59686 12.0549
head 6.22244 -0.756324 4.56205
rclavicle -1.922e-014 2.38542e-015
rhumerus -47.6132 3.47191 -80.7898
rradius 46.3998
rwrist 11.4285
rhand 5.8863 -56.8282
rfingers 7.12502
rthumb -148.785 1895.81
lclavicle -1.922e-014 2.38542e-015
lhumerus -46.484 17.4025 60.4363
lradius 40.7128
lwrist -5.55993
lhand -3.69355 -34.7854
lfingers 7.12502
lthumb 22.0482 -6.02226
rfemur -5.33844 1.83578 28.9349
rtibia 29.1495
rfoot -14.3817 -20.9713
rtoes -4.62454
lfemur -24.6038 6.32865 -15.1694
ltibia 55.8364
lfoot -20.1936 13.8662
ltoes -11.3359
3572
root 10.7504 15.3461 39.3852 -190.393 -69.7983 -167.416
lowerback 11.1667 2.66676 1.86511
upperback -3.58721 3.79633 -0.613718
thorax -9.96863 1.68396 -2.44708
lowerneck -9.40968 -0.691062 -6.25386
upperneck 15.2033 -2.23273 12.2636
head 6.34212 -0.604106 4.79755
rclavicle 7.96878e-014 2.06736e-014
rhumerus -47.4205 4.55424 -80.5027
rradius 45.9129
rwrist 11.4119
rhand 5.6122 -57.5303
rfingers 7.12502
rthumb -149.046 1895.06
lclavicle 7.96878e-014 2.06736e-014
lhumerus -47.0565 17.9175 60.1542
lradius 40.8734
lwrist -5.33062
lhand -3.67413 -34.7231
lfingers 7.12502
lthumb 22.0669 -5.96219
rfemur -5.7738 2.63201 28.6667
rtibia 29.1289
rfoot -14.6129 -20.7648
rtoes -4.23014
lfemur -24.8897 5.12323 -14.9179
ltibia 54.8359
lfoot -20.5649 13.7054
ltoes -17.5458
3573
root 10.7474 15.3435 39.4077 -189.342 -68.9345 -168.206
lowerback 11.1816 2.55576 1.98688
upperback -3.67293 3.6714 -0.566898
thorax -10.0742 1.61434 -2.44558
lowerneck -9.11829 -0.449185 -6.3419
upperneck 15.7151 -1.93955 12.1309
head 6.41953 -0.485429 4.8022
rclavicle 6.12816e-014 -2.78299e-014
rhumerus -47.2257 4.74409 -80.2429
rradius 45.344
rwrist 11.7584
rhand 5.25366 -57.5766
rfingers 7.12502
rthumb -149.388 1894.95
lclavicle 6.12816e-014 -2.78299e-014
lhumerus -47.2447 18.0913 59.8379
lradius 40.8378
lwrist -4.78432
lhand -3.60218 -34.5601
lfingers 7.12502
lthumb 22.1359 -5.80732
rfemur -6.08812 3.31178 28.4581
rtibia 29.0677
rfoot -14.6963 -20.6435
rtoes -6.14268
lfemur -25.0518 3.64446 -14.5203
ltibia 53.6587
lfoot -20.9081 13.0945
ltoes -22.5395
3574
root 10.7471 15.3395 39.4266 -188.348 -68.0301 -169.099
lowerback 11.3999 2.59225 1.98385
upperback -3.7101 3.71669 -0.652047
thorax -10.2363 1.62828 -2.55859
lowerneck -9.1276 -0.40667 -5.98715
upperneck 16.358 -1.97172 11.8457
head 6.62295 -0.500081 4.6583
rclavicle 4.51303e-015 -1.19271e-014
rhumerus -47.1417 3.67025 -79.7262
rradius 44.7988
rwrist 12.9254
rhand 5.51808 -57.1485
rfingers 7.12502
rthumb -149.136 1895.42
lclavicle 4.51303e-015 -1.19271e-014
lhumerus -47.0443 18.0305 59.5454
lradius 40.5341
lwrist -4.39924
lhand -3.76344 -34.5202
lfingers 7.12502
lthumb 21.9811 -5.74919
rfemur -6.23433 4.10526 28.2093
rtibia 28.9604
rfoot -14.6664 -20.7025
rtoes -8.19056
lfemur -24.9904 1.96687 -14.0876
ltibia 52.3352
lfoot -21.4586 11.8054
ltoes -24.7095
3575
root 10.7362 15.3372 39.4493 -187.544 -67.0213 -169.812
lowerback 11.4928 2.7184 2.09451
upperback -3.70538 3.89824 -0.723798
thorax -10.264 1.7048 -2.73845
lowerneck -9.45649 -0.507979 -5.57847
upperneck 17.2315 -2.2058 11.4616
head 6.97728 -0.603394 4.46205
rclavicle -5.27401e-014 1.74931e-014
rhumerus -47.1396 2.29315 -78.9835
rradius 44.3106
rwrist 14.0062
rhand 5.64524 -56.7851
rfingers 7.12502
rthumb -149.015 1895.81
lclavicle -5.27401e-014 1.74931e-014
lhumerus -46.8149 17.6911 59.4543
lradius 40.3606
lwrist -4.30031
lhand -4.31317 -34.4166
lfingers 7.12502
lthumb 21.4532 -5.58449
rfemur -6.12571 4.93295 27.9713
rtibia 28.7389
rfoot -15.4993 -20.3694
rtoes -7.21752
lfemur -24.8156 0.0418184 -13.6149
ltibia 50.9129
lfoot -21.9087 10.5625
ltoes -28.0103
3576
root 10.7165 15.3375 39.4752 -187.068 -65.9086 -170.358
lowerback 11.5963 2.83369 2.2805
upperback -3.64101 4.07891 -0.776741
thorax -10.2269 1.77924 -2.93843
lowerneck -9.67202 -0.568477 -5.18269
upperneck 18.1069 -2.41097 11.1725
head 7.31157 -0.691804 4.29957
rclavicle 7.08357e-014 -7.15625e-015
rhumerus -47.0117 1.67305 -78.544
rradius 43.846
rwrist 13.9903
rhand 5.36765 -57.1118
rfingers 7.12502
rthumb -149.279 1895.43
lclavicle 7.08357e-014 -7.15625e-015
lhumerus -46.6935 17.3353 59.2865
lradius 40.339
lwrist -4.51396
lhand -4.84729 -34.0716
lfingers 7.12502
lthumb 20.9401 -5.18191
rfemur -5.8 5.74467 27.7674
rtibia 28.4436
rfoot -16.2728 -19.8508
rtoes -4.89952
lfemur -24.3305 -2.15309 -13.1139
ltibia 49.4294
lfoot -22.427 9.72921
ltoes -31.8124
3577
root 10.6944 15.3408 39.5003 -186.536 -64.716 -170.934
lowerback 11.6729 3.03788 2.48863
upperback -3.55845 4.37935 -0.852537
thorax -10.1409 1.91095 -3.19572
lowerneck -9.76951 -0.699017 -5.13796
upperneck 18.7606 -2.6913 11.1759
head 7.56684 -0.820864 4.28225
rclavicle -2.67605e-014 -1.27222e-014
rhumerus -46.8953 1.1104 -78.1542
rradius 43.5045
rwrist 13.7048
rhand 4.80283 -57.4405
rfingers 7.12502
rthumb -149.818 1895.01
lclavicle -2.67605e-014 -1.27222e-014
lhumerus -46.3421 17.0497 59.2572
lradius 40.133
lwrist -4.80155
lhand -4.79263 -33.742
lfingers 7.12502
lthumb 20.9926 -4.85813
rfemur -5.8234 6.61522 27.5267
rtibia 28.2117
rfoot -15.732 -19.8952
rtoes -6.37531
lfemur -23.8104 -4.41385 -12.6129
ltibia 47.9012
lfoot -23.1174 8.52022
ltoes -32.5959
3578
root 10.6696 15.338 39.5303 -186.078 -63.6952 -171.232
lowerback 11.4664 2.93465 2.4843
upperback -3.4566 4.25028 -0.679851
thorax -9.92888 1.8635 -2.96397
lowerneck -10.1161 -0.55993 -5.06608
upperneck 19.5835 -2.54723 10.9055
head 7.88293 -0.757686 4.2131
rclavicle -7.33081e-014 3.57812e-015
rhumerus -46.5343 1.23732 -77.912
rradius 43.0907
rwrist 13.8248
rhand 4.1635 -57.1585
rfingers 7.12502
rthumb -150.428 1895.18
lclavicle -7.33081e-014 3.57812e-015
lhumerus -46.4817 17.658 58.9188
lradius 39.8868
lwrist -5.10251
lhand -4.41572 -33.6688
lfingers 7.12502
lthumb 21.3547 -4.82546
rfemur -6.08673 7.3837 27.3373
rtibia 28.0474
rfoot -15.2008 -19.9456
rtoes -7.62451
lfemur -23.5947 -6.94942 -12.0119
ltibia 46.3794
lfoot -23.6629 7.58937
ltoes -33.6293
3579
root 10.6423 15.3296 39.5649 -184.985 -62.6529 -172.221
lowerback 11.2281 2.77584 2.04145
upperback -3.35394 3.99161 -0.36756
thorax -9.74403 1.78353 -2.31341
lowerneck -10.4961 -0.327844 -5.41552
upperneck 20.5496 -2.16858 10.5167
head 8.23651 -0.625213 4.20509
rclavicle -5.02739e-014 9.54166e-015
rhumerus -46.1295 1.99137 -77.5499
rradius 42.7253
rwrist 13.5871
rhand 3.28174 -57.0599
rfingers 7.12502
rthumb -151.27 1895.13
lclavicle -5.02739e-014 9.54166e-015
lhumerus -47.0209 18.5966 58.6464
lradius 39.7333
lwrist -5.43211
lhand -4.07576 -33.7673
lfingers 7.12502
lthumb 21.6812 -4.96133
rfemur -6.27538 8.07191 26.7669
rtibia 27.927
rfoot -15.3024 -19.53
rtoes -6.60617
lfemur -23.4075 -9.66952 -11.7957
ltibia 44.9213
lfoot -24.2246 7.56264
ltoes -35.5543
3580
root 10.6148 15.3322 39.5941 -184.453 -61.4589 -172.779
lowerback 11.2516 2.74476 1.98842
upperback -3.27164 3.95495 -0.220381
thorax -9.68331 1.77623 -2.11781
lowerneck -10.5809 -0.217207 -5.55558
upperneck 21.2083 -2 10.2226
head 8.45531 -0.585651 4.16279
rclavicle -5.45571e-014 -9.93923e-015
rhumerus -45.9206 2.19215 -77.2715
rradius 42.5426
rwrist 13.2693
rhand 2.90695 -57.4402
rfingers 7.12502
rthumb -151.628 1894.69
lclavicle -5.45571e-014 -9.93923e-015
lhumerus -47.335 19.0126 58.3356
lradius 39.7016
lwrist -5.61997
lhand -3.6018 -33.76
lfingers 7.12502
lthumb 22.1363 -5.00729
rfemur -6.25004 8.73844 26.4255
rtibia 27.8124
rfoot -15.4324 -19.0524
rtoes -5.70802
lfemur -23.0078 -12.2823 -11.3895
ltibia 43.5828
lfoot -24.7966 7.4946
ltoes -37.3318
3581
root 10.5889 15.3222 39.6292 -184.037 -60.2406 -173.092
lowerback 11.0851 2.76498 2.05607
upperback -3.15497 3.99133 -0.164695
thorax -9.45549 1.7983 -2.08816
lowerneck -10.6022 -0.130531 -5.24746
upperneck 21.6682 -1.91297 9.82744
head 8.60229 -0.563052 3.99329
rclavicle 8.19676e-015 4.37326e-015
rhumerus -45.6091 1.97104 -76.9618
rradius 42.4175
rwrist 13.384
rhand 3.56693 -58.1385
rfingers 7.12502
rthumb -150.998 1894.1
lclavicle 8.19676e-015 4.37326e-015
lhumerus -47.3923 19.3925 57.9829
lradius 39.6422
lwrist -5.95809
lhand -3.51203 -33.6603
lfingers 7.12502
lthumb 22.2225 -4.91784
rfemur -6.18236 9.64955 26.1515
rtibia 27.6875
rfoot -16.5379 -18.378
rtoes -1.0043
lfemur -22.8358 -14.7566 -10.8374
ltibia 42.4108
lfoot -25.44 6.78038
ltoes -39.23
